<svg xmlns="http://www.w3.org/2000/svg" viewBox="0 0 26.22 26.2">
  <defs/>
  <path fill="none" stroke="#007ab7" stroke-linecap="round" stroke-linejoin="round" stroke-width="2.12" d="M18.67 1.84l-1.79 1.85v19.58l1.79 1.85M13.5 1.84v23.28M8.35 1.84l1.92 1.85v19.58l-1.92 1.85M1.87 8.32l1.85 1.79H23.3l1.85-1.79M1.87 18.64l1.85-1.79H23.3l1.85 1.79m0-5.16H1.87"/>
  <path fill="#00a9ff" d="M7.03 6.5H18.4c.3 0 .53.23.53.53V18.4c0 .3-.23.53-.53.53H7.03a.53.53 0 01-.53-.53V7.03c0-.3.23-.53.53-.53z"/>
  <path fill="none" stroke="#00a9ff" stroke-linecap="round" stroke-linejoin="round" stroke-width="2.12" d="M17.87 1.07L16.1 2.93V22.5l1.78 1.86M12.72 1.07v23.29M7.56 1.07l1.91 1.86V22.5l-1.91 1.86M1.07 7.56l1.86 1.78H22.5l1.86-1.78M1.07 17.87l1.86-1.78H22.5l1.86 1.78m0-5.15H1.07"/>
  <g style="line-height:1.25">
    <path fill="#fff" d="M7.55 15.2q0-.25-.06-.43 0-.55.73-.97.49-.24.73-.24.3.06.42.36l.49 1.15q.12.25.24.25t.24-.19q2.06-3.63 3.7-5.64 1.28-1.51 1.58-1.75.97-.73 2.3-.8l.06.31q-1.03 1.03-3.57 4.6-2.49 3.59-3.58 5.65-.24.54-.6.67-.19.18-.8.12-.42.06-.6-.12-.18-.13-.37-.49-.6-1.46-.9-2.49z"/>
  </g>
</svg>
